<?xml version='1.0' encoding='utf-8'?>
<svg xmlns="http://www.w3.org/2000/svg" width="2.8068in" height="1.712in" clip-rule="evenodd" fill-rule="evenodd" image-rendering="optimizeQuality" shape-rendering="geometricPrecision" text-rendering="geometricPrecision" version="1.1" viewBox="0 0 571.6 348.65"> <defs> <style type="text/css">.fil3 {fill:#00628F} .fil2 {fill:#007EB8} .fil7 {fill:#010101} .fil9 {fill:#990000} .fil10 {fill:#BD0000} .fil4 {fill:#C99D38} .fil5 {fill:#C99D38} .fil6 {fill:#DB1B11} .fil8 {fill:#FF9999} .fil0 {fill:#FFCC99} .fil1 {fill:white}</style> </defs> <path class="fil0" d="m150.46 89.39s-6.31 14.03-6.97 16.59-15.47-7.51-20.18 4.39-0.42 23.2 7.01 26.59c7.44 3.39 11.67-1.45 11.67-1.45s11.71 56.15 55.91 57.32 76.81-35.09 79.14-64.26-5.55-53.5-5.55-53.5-13.52 1.82-24.01-2.44c-10.48-4.26-18.64-10.89-18.64-10.89l-74.13 21.8-4.26 5.83z"/> <path class="fil1" d="m209.3 79.19c-4.47-1.4-21.25 3.08-27.09 20.81s1.12 25 6.98 26.81c5.87 1.82 22.49-2.51 27.79-15.36 5.31-12.85 3.82-29.9-7.68-32.26z"/> <path class="fil1" d="m249.32 84.84c-4.32 0.55-12.12 9.74-10.19 22.59 1.93 12.86 8.82 16.07 12.21 15.8 3.4-0.28 12.12-5.14 10.38-18.83-1.74-13.68-7.35-20.48-12.4-19.56z"/> <path class="fil2" d="m145.37 76.22s-17.35-5.4-31.67 0.06-25.04 16.49-26.79 23.8c-1.75 7.32 13.39-2.27 29.26-6.39s29.57-8.96 29.57-8.96l-0.37-8.51z"/> <path class="fil2" d="m199.19 11.78c-19.24 5.08-37.75 21.94-44.29 39.8-6.54 17.85-8.04 31.35-8.04 31.35l116.8-31.35s-18.94-46.34-64.47-39.8z"/> <path class="fil3" d="m197.28 4.58c-4.05 0.89-6.12 1.48-5.1 3.46 1.01 1.98 3.46 3.33 6.41 2.57s4.85-0.38 4.72-3.29-6.03-2.74-6.03-2.74z"/> <path class="fil4" d="m237.57 62.23 21.73-7.27s3.75 1.56 4.69 1.02c0.94-0.55 16.1-20.4 16.1-20.4s8.44 10.39 4.92 14.85 6.65 5.57 6.65 5.57-7.62 16.44-26.38 17.3-30.66-6.25-27.71-11.07z"/> <polygon class="fil5" points="135.88 89.75 131.39 100.24 142.91 103.58 147.29 88.83 147.06 86.06"/> <path class="fil5" d="m128.54 138.6s-2.72 12.92-0.29 22.44 10.98 19.92 10.98 19.92l6.51-4.47 12.14 17.29 10.39-10.49s-12.82-13.12-17.78-23.61c-4.95-10.49-8.18-22.82-8.18-22.82l-13.77 1.74z"/> <path class="fil0" d="m174.73 187-1.89 8.66s-15.28-0.79-18.43 4.33 2.77 12.34 29.38 13.86 29.38-4.02 29.62-7.17 0.08-4.41 0.08-4.41l-5.04-0.24 1.02-7.64s-15.18-1.79-34.74-7.41z"/> <path class="fil0" d="m261.83 199.06s-4.21 8.31-2.22 17.73 7.2 14.85 7.2 14.85 29.8-7.75 53.62-22.49c23.82-14.73 40.33-30.25 40.33-30.25l-7.41-25.76s-24.64 21.14-42.79 28.46-32.48 16.7-48.73 17.46z"/> <path class="fil0" d="m87.09 238.24s-22.42 13.94-28.85 19.96c-6.42 6.02-15.04 14.63-15.04 14.63s-24.94-0.6-33.66 15.47c-8.71 16.06-2.63 16.79-0.29 16.79 2.33 0 11.38-4.82 11.38-4.82s-15.31 26.86-8.03 31.53 17.66-10.22 17.66-10.22-1.9 16.64 4.67 17.51c6.57 0.88 12.41-14.01 12.41-14.01s-0.46 19.84 4.51 20.13c4.96 0.29 12.99-11.09 12.84-17.95s-1.46-17.81-1.46-17.81 12.41 6.69 18.39 0.15c5.98-6.55-0.15-19.27-5.4-20.44s-17.08-4.82-17.08-4.82 9.23-11.18 16.82-16.62 19.3-10.39 19.3-10.39-1.38-20.9-8.18-19.09z"/> <path class="fil6" d="m87.37 227.44s7.36 13.27 8.52 18.65c1.17 5.37 3.04 15.54 3.04 15.54l20.79-7.13-17.58 75.59s37.31 13.81 66.97 7.88 61.15-18.03 61.15-18.03l-4.11-70.73s20.53-1.87 29.6-4.29 15.84-8.59 15.84-8.59-12.05-3.21-14.47-18.23c-2.41-15.02 5.04-23.68 5.04-23.68l-46.04 6.14s5.76 20.09-34.29 15.26-29.09-17.79-29.09-17.79-49.96 14.99-65.38 29.4z"/> <path class="fil1" d="m349.65 128.18s48.04-31.65 78.32-39.69 64.48-14.04 64.48-14.04 22.85 44.43 27.74 85.53 4.89 84.49 4.89 84.49-56.18 25.69-95.9 38.49-56.11 10.44-56.11 10.44-3.83-80.74-23.43-165.22z"/> <path class="fil0" d="m347.31 112.59s-21.73-3.12-32.24 5.97-24.86 26.56 5.4 28.12 28.12-14.91 28.12-14.91l5.54-9.09s9.23 7.39 14.35 3.98c5.11-3.41 7.24-10.09 7.24-10.09s5.54 1.28 9.23-0.57 7.53-8.38 7.53-8.38 7.53 2.41 12.5-0.43 8.3-8.11 8.3-8.11 6.29 1.65 9.59-0.86c3.31-2.52 8.39-14.68 5.58-25.65s-8.69-17.12-13.61-13.26-6.94 10.1-6.94 10.1-7.99-8.16-13.96-3.69c-5.97 4.48-7.73 9.66-7.73 9.66s-7.29-7.37-12.55-4.57c-5.27 2.81-7.37 13.87-7.37 13.87s-13.69-7.37-17.82-1.4-1.17 29.31-1.17 29.31z"/> <path class="fil7" d="m54.33 285.8c3.91 4.47 11.64 2.45 20.12 7.12 7.42 4.09 9.67 11.61 1.78 16.69-3.53 0.11-7.03-0.72-9.71-2.25-3.43-1.97-2.13-5.19-7.74-3.89-1.28 6.47 3.7 12.25 2.39 21.12-1.11 7.53-3.09 13.31-7.48 17.55-0.4-0.4-0.4-0.17-0.99-1.04-4.93-7.29 4.59-25.71-1.66-26.88-4.19-0.78-5.7 8.72-7.26 12.02-1.59 3.36-3 6.01-5.41 8.58-1.7 1.82-1.45 1.63-2.98 1.78-0.39-5.95 0-11.98 1.66-17.03 1.74-5.28 6.02-9.3 3.72-14.14l-3.65-0.16c-2.08 2.88-2.37 4.66-3.88 7.1-1.36 2.18-3.58 3.63-5.51 5.79-3.86 4.35-6.3 10.61-12.02 11.09-0.62-9.02 3.01-14.56 6.79-20.92 6.67-11.23 11.03-11.88 9.15-17.78-6.22-2.6-13.83 11.99-23.43 10.99-1.33-15.2 24.84-27.98 30.32-24.54 0.01 0 4.04 2.39 6.78-0.87 1.59-1.9 3.11-4.23 4.93-6.38l37.3-28.87 4.44 13-5.54 3.68c-9.4 5.4-16.36 11.57-24.57 18.54-3.12 2.65-7.65 4.76-7.56 9.68zm210.49-49.05c-4.54 4.63-32.94 10.23-42.04 10.76-0.5 3.09 1.78 30.43 2.43 34.51 1.21 7.53 2.74 28.07 1.42 35.6-10.67 6.41-43.16 13.77-55.87 15.06-10.92 1.11-23.44 2.09-34.89 0.85-10.75-1.17-19.27-4.08-30.16-5.61l14.57-54.42c1.42-4.12 9.46-23.36-1.59-22.85-2.17 0.1-3.84 1.22-5.28 2.04l-5.58 3.02c-3.01 1.43-3.41 2.27-6.6 2.45-0.86-9.35-9.62-25.98-10.31-28.7 2.8-3.13 8.84-5.84 12.68-8.4 4.97-3.31 8.66-4.92 14.12-7.14 5.89-2.4 26.66-11.8 30.77-12.61 1.19 2.71-0.86 8.35 12.59 12.08 7.03 1.95 13.89 2.64 21.91 3.36 12.67 1.13 35.98 3.43 34.66-13.34 7.6 0.04 14.67-0.02 21.27-1.46 2.99-0.65 6.35-1.14 9.64-1.84 2.97-0.63 6.91-1.93 9.94-2.04-1.36 2.91-1.52 6.58-2.45 10.48-2.01 8.42 2.45 22.38 8.78 28.2zm-59.33-30.18c2.45 0.08 2.98-0.8 4.58-1.65 0.14 2.87-0.83 3.26-3.87 4.12-5.76 1.64-17.63 1.7-23.1 0.5-7.82-1.72-20.17-0.7-27.24-6.59 1.92-3 9.84-5.72 13.16-5.91-0.33 4.68-0.96 6.98 4.07 7.24 3.28-2.97 3.32-6.64 3.64-12.29 2.8-0.21 12.4 4.67 20.12 4.9 3.01 0.09 6.06-0.04 9.04 0.31-1.47 3.82-3.08 5.6-0.4 9.38zm-35.19-14.36-4.73 0.33c0.39-0.79 2.93-4.19 3.54-4.66 2.63-2.01 1.54 3.27 1.19 4.34zm96.84 35.2c-4.12-5.17-5.13-15.89-3.89-23.66 8.6-1.35 17.89-5.14 25.06-8.1 12.82-5.29 22.41-10.48 34.37-16.19l2.44-1.41c0.8-0.48 2.05-1.17 2.5-1.42 4.87-2.67 4.8-3.38 10.03-6.59 1.89-1.16 3.25-2.24 4.89-3.72 2.1-1.9 7.17-7.13 9.44-8.07l4.33 19.44-2.16 2.2c-0.8 0.74-1.6 1.46-2.47 2.22-1.51 1.33-3.31 2.53-4.81 3.79-1.68 1.42-2.72 2.47-4.69 3.92l-25.85 17.2c-7.54 4.43-42.06 21.02-49.19 20.39zm-136.06-85.68 8.37-0.73c1.91 8.42 5.45 18.07 10.03 25.16l2.34 3.55c4.36 6.45 7.05 8.29 11.77 13.34-0.3 1.26-2.77 5.22-4.5 6.19-2.44-1.6-4.58-5.05-5.88-6.97-4.14-6.1-1.6-3.36-3.13-10.13-7.05-2.68-5.88 1.96-10.21 3.8-5.4-7.84-9.54-22.36-8.79-34.21zm220.61-12.54c9.13-4.61 2.46-2.13 10.97 0.85 12.24 4.28 14.28-6.2 16.59-10.43 8.86 3.95 11.75-3.83 13.21-6.74 0.09-0.18 0.37-0.69 0.48-0.86 0.6-0.92 0.56-0.77 1.1-1.36 2.99 2.55 8.94 2.64 12.7 0.55 4.74-2.63 5.02-5.16 7.56-9.63 2.63 0.7 2.27 1.71 5.97 1.65 6.59-0.1 9.47-5.49 11.71-11.17 4.68-0.92 9.78-2.48 14.18-3.6 9.44-2.38 37.74-9.38 45.7-9.82 1.32 1.6 0.98 0.44 1.87 3.7 0.5 1.83 0.78 2.56 1.29 4.51 0.79 3.01 1.83 6.02 2.73 8.89 1.79 5.72 3.91 11.38 5.62 16.69 1.91 5.93 3.46 11.77 5.11 17.35 1.89 6.39 2.66 12.54 4.23 19.25 1.49 6.35 2.18 12.49 3.14 19.29l3.08 31.28c0.08 3.61 0.25 7.3 0.74 10.83l0.63 32.22c-10.14 5.91-55.32 24.2-67.38 27.87-5.83 1.77-12.23 3.95-18.27 5.81-6.18 1.9-12.28 3.46-18.61 5.28-5.58 1.6-35.43 8.91-39.9 7.86l-3.31-42.19c-0.92-7.24-0.98-14.37-1.88-21.77l-3.96-29.99c-0.51-3.22-1.01-7.27-1.3-10.53-0.66-7.43-12.43-51.68-14.01-55.81zm-220.43-20.71c4.9-0.54 4.49-0.09 8.47 1.14 5.49 1.69 3.65 0.02 7.89-1.72 0.89-4.87 3.45-12.3 5.99-16.42l3.6-4.46c2.36-2.99 4.53-2.5 10.93-4.24l48.85-13.48c4.03-1.13 8.84-3.15 12.37-3.59l7.28 5.33c11.02 5.58 16.04 7.8 29.84 7.66 6.24 7.51 7.57 28.77 7.54 37.4-0.04 14.79-2.49 24.23-9.19 35.5-10.3 17.34-31.18 33.11-52.83 36.5-25.42 3.98-45.43-8.41-57.25-29.85-9.24-16.75-5.13-31.79-15.85-26.5-2.93 1.45-6.33 1.42-9.22-0.21-5.63-3.16-5.56-12.16-3.33-17.12 1.27-2.83 2.84-4.02 4.9-5.95zm214.46 25.52c-8.39 4.49-14.72 10.48-26.87 10.45-3.14-0.01-5.51-0.54-7.99-1.85-9.55-5.06-3.29-20.78 17.8-25.92 4.18-1.02 13.89-2.06 18.7-1.84 1.36 1.49 3.35 4.5 4.08 6.57-1.2 1.99-2.48 2.64-3.65 5.04-1.69 3.48-0.79 4.33-2.06 7.55zm6.27-48.55c6.54-0.62 12.43 9.17 15.47 14.45 2.26 3.91 3.15 6.38 4.28 11.22 2.65 11.3-4.41 17.79-13.28 7.79-6.33-7.14-7.78-12.25-9.56-21.21-1.19-6.01 0.05-8.25 3.09-12.24zm-211.49 15.17c-2.06-0.46-3.63-0.9-6.31-1.37 1-2.51 2.6-5.68 3.81-8.13l6.65-1.46c-0.38 2.32-3.01 8.86-4.15 10.97zm243.97 12.06-5.31 0.17c-2.48-7.45-0.57-8.49-7.47-19.13-2.21-3.41-3.75-5.4-2.16-10.48 5.51-17.68 11.84-4.95 15.12 6.85 1.67 6 3.93 17.1-0.18 22.59zm-294.4-13.02c1.83-5.18 10.24-12.32 15.78-15.58 14.8-8.72 22.55-7.85 37.93-6.36l-0.23 4.98c-17.02 4.22-23.69 5.52-40.43 11.88-3.38 1.28-10.13 4.52-13.05 5.08zm313.3 5.34c-5.79 0.22-5.22-0.15-9.35-2.46-0.42-7.36-2.17-13.85-4.35-20.14-2.91-8.4 5.18-14.69 10.03-13.48 5.42 1.35 10.93 18.24 8.2 28.32-1.25 4.61-1.96 4.49-4.53 7.75zm11.83-7.55c0.16-9 1.1-14.1-2.39-22.36-1.96-4.63-2.65-4.4 0.04-8.78 1.56-2.55 4.38-6.08 8.27-2.77 6.4 5.45 8.38 29.6-0.83 32.8-1.84 0.64-2.94 1.03-5.08 1.11zm-239.63-25.43c0.41-9.08 6.74-26.8 12.23-34.55 3.67-5.18 6.75-8.54 10.87-12.38 2.24-2.09 3.42-3.09 6.25-5.07l7.22-4.75c10.19-0.27 22.08 6.5 28.55 11.99 5.55 4.71 16.5 15.68 17.95 22.55l-4.33 1.5c-21.51 4-26.26 5.42-47.02 12.08-3.78 1.21-6.8 1.68-10.59 2.82l-21.12 5.81zm102.19-13.3c3.67 1.13 3.92 0.6 7.55 0.37-3.03 7.89-19.51 13.94-34.3 8.97l-8.71-3.24c-3.13-1.28-1.21 0.38-2.53-1.75l18.74-3.94c8.14-0.11 5.84 2.42 15.11-8.18 1.45-1.66 5.31-7.52 6.69-8.42 0.57 8.09-6.34 9.85-2.54 16.18zm-107.89 15.1c-3.51 1.01-5.97 1.54-9.25 2.57-2.33 0.73-7.62 2.39-9.96 2.53 2.17-17.35 13.67-38.67 26.75-50.56 3.35-3.05 11.84-9.29 16.92-9.74-5.95 9-15.07 12.09-22.14 37.78-2.98 10.82-1.43 12.08-2.32 17.43zm24.51-66.43c1.25-0.96 1.65-1.05 3.85-1.01 2.45 0.05 2.49 0.38 3.32 1.01-1.69 1.14-5.88 2.97-7.17 0zm-4.96 3.98c-6.77 5.1-16.56 6.17-28.67 24.21l-7.52 12.38c-5.23 9.96-5.41 16.32-8.71 24.91-5.4-0.71-8.69-2.77-15.25-2.76-11.98 0.02-24.29 5.36-32.09 11.22-4.17 3.13-7.76 6.76-11 10.92-3.15 4.04-6.93 9.42-5.98 16.09 4.76 3.09 9.53-0.6 13.34-2.12 3.67-1.46 7.06-3 10.66-4.5 2.98-1.25 8.16-3.12 11.31-4 4.23-1.18 7.87-3 12.02-3.67-0.51 3.27-1.06 3.58-1.24 7.19-11.76 7.56-14.49 26.69-1.34 37.38-0.02 4.78-1.46 7.53-0.96 15.93 0.47 7.88 5.48 24.05 11.83 29.28 1.96 1.62 5.08 1.26 6.88 0.05l1.82-1.09c1.61 1.31 2.16 3.39 3.47 5.39 0.58 0.87 1.4 1.79 2.03 2.64 0.09 0.12 0.82 1.18 0.83 1.22l0.09 1.48c-0.05 1.15-17.79 6.82-20.24 7.71-9.37 3.39-20.53 7.51-29.09 12.45l-17.29 10.58c-3.14 3.79 0.05 6.59 0.43 10.49-6.41 5.45-19.66 11.97-28.94 20.03-19.96 17.33-9.91 13.53-25.94 15.47-2.1 0.25-6.34 1.99-8.14 2.76-15.63 6.67-27.59 26.63-18.68 34.27 3.05 2.62 5.18 2.14 9.59 2.26-1.55 7.51-8.68 15.3-3.46 23.42 7.08 11 17.36-2.04 19.58-2.42 0.04 6.91-0.63 9.53 4.4 12.82 6.16 0.8 8.45-1.84 11.27-5.18l1.63 2.26c1.13 3.18 1.87 6.66 5.37 7.89 4.48 1.57 8.42-3.08 10.36-6.09 5.94-9.19 6.07-16.58 5.53-28.16 13.25 5.24 21.45-4.04 20.25-14.31-1.6-13.66-14.89-14-21.28-17.96l12.94-10.27c3.62-2.86 10.2-7.47 14.26-9.13 4.15 2.39 3.84 7.06 18.13-0.26 1.94-0.99 3.77-2.01 5.66-2.73-1.31 6.12-9.54 24.51-11.78 34.3-1.41 6.18-3.34 12.28-4.79 18.33-1.21 5.06-4.04 15.69-3.83 20.37 1.46 1.53 1.62 2.39 4.52 2.38 7.7-0.02 12.19 2.59 19.82 4.24 33.59 7.25 69.41 1.37 101.06-10.67 1.98-0.75 2.51-1.18 4.17-1.77 7.88-2.83 9.99 6.27 8.25-24.87-0.37-6.62-1-11.24-1.4-17.29-0.47-7.13-2.76-25.12-4.96-31.48 5.35-0.91 6.42-0.49 15.06-2.22 9.31-1.86 17.77-4.67 26.54-7.92 5.65-2.09 8.35-3.23 7.19-10.83 2.23-0.46 9.11-2.95 11.34-3.83 17.75-6.99 36.4-15.23 51-27.85 2.94-2.54 7.06-3.94 10.36-6.83l3.66-3.02c1.84-1.37 2.76-2.25 4.45-3.31 1.39 11.04 4.02 25.05 4.59 36.29 1.14 22.61 4.64 45.13 5.48 67.68 0.12 3.15 1.31 5.94 3.67 6.79 2.25 0.8 31.92-4.5 35.49-5.43 27.53-7.18 67.38-18.41 93.19-31.32l28.83-13.01c-0.1-2.62 0.35-6.54 0.25-8.09-0.18-2.74-0.5-4.92-0.52-8.62-0.02-5.27-0-12.45-0.53-17.27-1.22-11-1.39-22.03-2.82-32.8-1.36-10.31-1.4-22.23-4.06-31.83-1.35-4.88-1.64-9.96-3.16-14.83-1.35-4.34-2.71-9.59-3.87-13.97-3.59-13.57-9.17-26.4-13.45-40.23-1.56-5.06-1.85-9.16-7.88-10.23-7.76-1.38-34.69 6.66-44.91 8.79-4.66 0.97-9.66 2.83-14.62 3.34-0.63-8.95-1.54-17.91-7.68-23.68-2.7-2.54-7.19-4.53-11.92-2.47-1.37 0.6-3.32 2.37-4.28 3.61l-3.38 4.61c-4.81-2.23-6.75-4.6-13-1.78-3.73 1.69-6.8 5.19-8.54 8.4-2.65-0.75-3.55-2.99-6.58-3.77-8.78-2.24-13.56 7.47-14.74 15.23-4.47-0.69-6.75-7.87-14.55-3.3-2.39 1.4-4 2.88-4.81 5.81-0.92 3.32-1.28 5.95-1.28 9.82 0.01 6.35 2.03 9.6 2.13 14.57-17.74-0.48-32.34 1.03-42.18 15.1-14.19 20.29 9.5 37.23 39.29 20.79 1.96-1.08 4.1-3.42 6.36-3.76l1.83 8.46c-8.3 4.83-11.53 12.2-26.14 19.81-10.77 5.61-43.87 23.76-53.14 24.5-6.2-9.12-20.43-1.38-35.04 1.16l-24.37 3.38c0.13-1.69 0.04-2.19 1.58-2.79 1.05-0.41 2.79-0.33 4.12-0.65l14.4-4.71c18.99-7.52 35.82-23.92 44.32-42.59 8.7-19.09 7.89-43.03 2.4-63.32-0.87-3.23-2.37-5.52-2.59-8.51 6.95-3.39 9.31-3.95 15.11-10.03 4.25-4.45 9.26-10.53 7.74-17.81-3.83-4.1-5.33-1.62-9.82-1.19 0.37-5.75-0.61-22.73-10.17-18.41-3.94 1.78-7.66 15.17-12.87 16.73-1.57-2.33-2.62-4.94-4.27-7.45l-5.16-6.73c-12.42-14.35-28-25.11-49.19-24.42-0.81-8.17-12.87-8.89-17.79-3.78-2.77 2.88-1.44 5.31-0.01 8.13z"/> <path class="fil7" d="m217.01 96.22c0 28.06-35.22 40.7-34.22 13.24 0.21-5.78 2.39-10.29 4.75-14.61 1.46-2.67 1.68-3.59 4.58-5.38 5.48-3.39 13.09-10.12 18.94-7.34 4.44 2.11 5.95 8.86 5.95 14.1zm-14.8-21.2c-5.19 2.33-9.72 2.69-15.92 10.6-3.97 5.06-7.4 10.45-9.31 17.43-7.7 28.23 21.11 38.1 37.95 17.87 4.1-4.93 7.49-11.19 8.54-18.11 1.23-8.08 1.07-14.65-2.68-21.27-4.11-7.26-13.16-8.96-18.58-6.53z"/> <path class="fil8" d="m185.39 143.11 17.65 7.78 3.63 20.33s-16.26 6.4-23.35-3.98 2.08-24.13 2.08-24.13z"/> <path class="fil9" d="m204.34 152.45 3.61 17.19s4.61-0.75 8.22-5.35c3.61-4.61 4.98-9.34 4.98-9.34l-16.81-2.49z"/> <path class="fil7" d="m204.59 169.6c-6.39 2.64-15.26 0.86-18.4-4.42-3.42-5.75-1.69-13.8 0.17-19.76 2.17 0.68 4.86 2.86 7.07 3.98 4.54 2.3 7.05 2.4 8.28 5.12 0.16 0.35 0.55 1.9 0.56 1.95 0.43 1.82 0.48 2.74 0.6 4.71 0.29 4.52 1.06 5.22 1.72 8.42zm4.81-3.16c-0.09-2.13 0.05-4.44-0.18-6.54-0.2-1.86-0.68-2.58-0.82-4.43 2.14 0.15 2.31 0.61 4.41 0.86 1.58 0.19 3.54 0.2 5.17 0.28-1.16 2.71-6.19 8.79-8.58 9.83zm20.24-17.44c-6.31-0.8-10.9 3.53-24.53-1.42-7.05-2.56-16.86-8.47-21.17-8.59-2.1 3.86-3.25 5.56-4.54 10.65-1.13 4.44-2.22 8.94-1.03 13.43 2.2 8.29 8.53 13.59 17.14 14.21 17.6 1.28 23.14-10.59 30.8-20.43 2.74-3.52 5.55-1.88 3.33-7.86z"/> <path class="fil7" d="m246.32 87.56c5.48-0.14 7.32-0.18 9.67 3.91 4.69 8.13 5.83 24.06-2.13 28.6-8.06 4.61-14.37-9.12-10.87-23.39 1.18-4.82 1.84-5.23 3.33-9.12zm3.15-7.09c-4.01 1.08-6.19-1.93-10.86 9.05-1.95 4.6-3.77 10.6-3.91 15.95-0.79 29.87 34.58 31.45 32.49-2.66-0.57-9.24-6.96-25.26-17.72-22.35z"/> <path class="fil7" d="m385.79 220.7c5.16 0.73 15.25-8.72 25.17-13.11 14.22-6.3 13.63 2.9 33.53-4.94 4.09-1.61 9.84-4.36 13.77-5.37 14.51-3.73 11.51 3.89 31.67-6.88 6.52-3.48 11.82-3.93 13.52-5.35-0.15-6.91-8.47-3.82-12.71-1.85-4.23 1.97-9.66 5.54-13.78 6.68-5.45 1.5-12.94-0.53-19.6 1.36-11.17 3.17-20.21 10.65-31.56 8.63-10.98-1.96-21.51 4.3-29.98 10.43-3.37 2.44-10.18 5.5-10.03 10.4z"/> <path class="fil7" d="m376.66 181.7c3.05 0.23 8.94-4.83 13.89-7.8 19.12-11.45 16.67-4.34 23.08-3.2 8.69 1.55 14.87-5.83 24.71-9.32 12.69-4.5 4.47 11.7 33.55-4.33 10.11-5.57 9.11-0.15 18.5-2.12 4.35-0.91 11.46-6.06 11.82-10.18-2.4 0.17-4.91 2.02-7.27 2.87-16.56 5.99-10.5-3.87-25.92 4.65-3.36 1.86-11.32 6.6-15.62 6.43-4.51-0.18-7.41-6.47-17.97-2.25-5.03 2.01-9.76 5.1-14.41 7.51-8.79 4.56-8.65-3.02-18.56-0.78-4.51 1.02-25.12 12.27-25.79 18.5z"/> <path class="fil10" d="m458.63 118.36c0.34-2.12 0.61-2.28 1.34-4.18 1.27-3.32 0.98-2.36 2.05-3 1.61 1.17 2.65 3.03 3.24 4.92-2.3 2.04 0.58 0.23-3.05 1.52-1.62 0.58-1.44 0.55-3.58 0.73zm-3.23 7.69c0.6-0.31 13.83-3.01 14.23-3.01 2.32 4.01 4.37 11.64 10.29 9.38 4.1-5.33-0.95-7.95-2.19-12.09-0.93-3.08 1.07-4.99-1.78-6.81-3.75-2.39-1.74 0.81-4.63-4.08-6.01-10.19-11.54-16.29-17.18-1.77-3.14 8.09-6.88 17.24-9.05 26.02-2.14 8.64 2.14 12.19 4.93 4.91 1.12-2.92 3.91-10.75 5.38-12.56z"/> <path class="fil7" d="m388.11 240.06c3.21 1.21 16.43-8.34 25.06-11.13 7.56-2.45 9-1.5 17.03-1.09 12.42 0.63 20.06-7.19 29.22-8.96 12.62-2.44 12.42 3.91 30.54-5.91 2.61-1.41 10.04-4.91 12.07-6.7-0.27-6.51-7.96-2.13-11.18-0.33-3.27 1.82-10.15 5.85-13.58 6.36-15.07 2.21-7.21-4.56-33.18 6.52-20.76 8.86-14.94-0.58-32.27 5.59-5.98 2.13-13.8 7.15-19.09 10.69l-3.48 2.48c-0.01 0.01-1-0.05-1.15 2.5z"/> <path class="fil7" d="m379.83 196.61c2.04-0.67 2.33-4.48 11.72-6.66 7.58-1.76 10 1.98 16.79 1.93 11.65-0.1 14.16-10.11 28.98-7.07 6.7 1.37 9.22 0.31 14.42-2.17 3.92-1.87 8.66-4.67 13-6.1 7.01-2.32 10.55 0.91 16.74-1.19 3.35-1.13 10.02-5.2 10.73-7.92-5.02-3.19-9.4 2.06-13.75 2.99-5.02 1.07-8.84-2.22-16.73 1.08-4.31 1.8-7.93 3.88-12.46 6.09-8.07 3.94-9.33 0.96-17.06 0.89-11.88-0.11-18.25 10.69-28.23 7.76-14.78-4.34-28.48 5.29-24.14 10.38z"/> <path class="fil7" d="m225.48 143.95c3.31 6.01 13.75 1.49 15.09-5.52 1.4-7.35-5.6-12.88-9.27-16.35-0.24-5.67 1.92-13.1 2.08-19.88 0.06-2.6 0.45-16.07-0.82-18.41-0.95-1.75-0.07-1-1.88-1.76l-1.76 3.11c-0.96 4.1-0.56 10.6-1.14 14.95-1.33 9.88-5.62 23.25-1.4 26.99 16.45 14.57 0.44 10.59-0.9 16.88z"/> <path class="fil7" d="m375.76 143.35c5.57 0.64 6.15-4.82 11.59-6.07 4.39-1.01 7.18 2.26 15.04-1.25 3.94-1.76 7.66-4.35 12-5.88 4.9-1.73 10.33-1.25 10.28-7.29-11.88 0.22-16.16 5.38-25.16 8.96-5.56 2.22-10.81-1.04-15.72 1.52-4.05 2.11-8.07 4.93-8.03 10.02z"/> <path class="fil7" d="m518.13 68.62c5.25 1.38 13.9-7.74 17.31-11.02 4.09-3.92 12.28-10.37 12.06-16.92-4.88-0.26-7.04 2.51-9.43 4.99l-14.37 14.8c-1.99 2-5.94 4.4-5.59 8.15z"/> <path class="fil7" d="m571.6 156.17c-1.51-5.59-19.57-14.88-24.56-17.72-3.3-1.88-5.8-4.4-10.42-3.46-1.09 4.47 3.04 5.78 5.68 7.57 8.13 5.53 19.36 13 29.3 13.61z"/> <path class="fil7" d="m444.13 247.31c2.59 1.32 2.84 3.27 7.13 2.74 2.31-0.29 18.67-8.01 19.57-9.32-3.82-7.03-17.12 4.65-20.73 4.34-4.58-0.39-1.87-6.25-13.2 1.69-2.55 1.78-9.44 6.02-9.65 8.97 5.75 1.73 9.42-5.11 16.89-8.41z"/> <path class="fil7" d="m205.49 106.15c-0.87-2.04 1.2-6.77 3.58-7.57-0.08 1.1-0.52 2.79-1.04 4.15-0.69 1.79-1.33 2.38-2.54 3.42zm8.8-5.95c1.76-5.64-2.93-10.33-7.38-6.56-15.87 13.46-0.23 30.9 7.38 6.56z"/> <path class="fil7" d="m567.75 98.87c-0.08-1.14 1.57-1.21-1.89-2.26-4.06-1.23-10.3-0.71-14.35-0.29-18.05 1.87-20.38 10.64-10.01 7.95 7.67-1.99 18.2-1.85 26.26-5.39z"/> <path class="fil10" d="m485.42 107.49c-2.89 2.29-4.48 1.41-3.43 5.97l4.56 0.82c1.76 3.1 0.93 4.32 5.79 3.62l0.61-5.76c3.32-1.68 3.69-0.85 2.85-5.9l-4.92-0.52c-0.49-1.98-1.18-4.97-3.64-4.8-3.04 0.2-1.71 3.68-1.82 6.58z"/> <path class="fil7" d="m247.92 103.21c0.49 0.58 0.83 0.39 0.88 2.29 0.07 2.6-0.53 2.04-1.17 2.44l0.29-4.73zm-0.66-5.53c-6.33 4.43-6.2 17.86 2.28 15.43 3.77-1.09 7.99-9.65 1.21-13.76-0.13-0.08-0.29-0.18-0.42-0.25l-3.07-1.42z"/> <path class="fil7" d="m492.52 235.13c3.01 0.78 3.32 2.72 7.03 1.96 2.85-0.58 4.35-2.37 4.92-5.14-4.5-0.29-5.2 1.78-8.72 0.22-3.38-1.49-3.17-1.58-6.58 0.54-5.83 3.64-4.37 7.43-0.33 4.43 1.67-1.24 1.67-1.3 3.67-2.01z"/> </svg>